<svg xmlns="http://www.w3.org/2000/svg" data-name="Layer 1" width="629.131" height="503.266"><path d="M571.604 503.221l-.038-.351a40.841 40.841 0 0111.204-32.46 39.625 39.625 0 017.785-6.179l.272-.165.089.304c1.064 3.637 2.479 7.306 3.127 8.932l1.432-11.647.31-.134a7.746 7.746 0 018.538 1.56 7.878 7.878 0 011.937 8.612 178.384 178.384 0 00-1.48 4.086c-1.638 4.634-3.332 9.427-6.195 13.35a24.686 24.686 0 01-18.795 9.918zm-294.279-4.174a24.686 24.686 0 01-18.794-9.918c-2.864-3.923-4.557-8.716-6.195-13.35-.477-1.35-.97-2.744-1.48-4.086a7.878 7.878 0 011.937-8.612 7.746 7.746 0 018.538-1.56l.31.134 1.432 11.647c.648-1.626 2.063-5.295 3.127-8.932l.089-.304.271.165a39.626 39.626 0 017.786 6.179 40.841 40.841 0 0111.203 32.46l-.037.351z" fill="#f2f2f2"/><path d="M184.098 260.4s-3.803-30.746-12.372-40.115l-20.168 7.811 15.925 40.636 32.224 40.648a8.594 8.594 0 1011.85-8.852zM81.303 277.534s13.795-27.74 11.819-40.281l-21.13-4.615-9.144 42.676 4.442 51.68a8.594 8.594 0 1014.768-.842z" fill="#a0616a"/><path fill="#9e616a" d="M105.705 490.1h9.996l4.755-38.557-14.753.001.002 38.556z"/><path d="M105.353 500.528l30.739-.001v-.389a11.965 11.965 0 00-11.965-11.964l-5.615-4.26-10.476 4.26h-2.683z" fill="#2f2e41"/><path fill="#9e616a" d="M133.091 484.444l9.75 2.203 13.138-36.56-14.391-3.251-8.497 37.608z"/><path d="M130.45 494.538l29.982 6.774.086-.379a11.965 11.965 0 00-9.033-14.307l-4.538-5.393-11.158 1.847-2.617-.592zm47.669-109.508c-5.937 18.91-21.12 69.107-21.12 69.107s-12.923 3.226-17 0 1-14 1-14c-2.688-12.07 3.36-24.27 3.752-35.972-.815-4.91 3.507-9.127 3.903-13.81-2.857-2.175-16.758-36.297-19.593-45.832 1.457 29.053-2.062 72.614-6.062 100.614-1.894 13.253-4.533 9.38-18 10-6.005-1.784-5-15-5-15v-11c-2.92-12.318-2.958-14.979-2-21-.439-6.392-5.94-72.474-10.822-94.84-3.254-17.817 36.618-21.738 48.085-25.987 19.134-9.218 15.905 3.887 25.981 15.96 9.716 20.812 15.44 57.975 16.876 81.76z" fill="#2f2e41"/><path fill="#c39c63" d="M139.732 191.828L130.058 178h-17l-15 14-1.261 124.387 67.88 7.61-24.945-132.169z"/><path d="M133.006 181.25l26.935 12.326L165.058 273s4.319 10.202 4.663 11.206c.36 1.054 1.08 6.256.768 7.121a26.587 26.587 0 00-1.431 8.673c.233 2.264 2.651 6.305 3.283 8.491.436 1.507-2.283 6.509-2.283 6.509a13.768 13.768 0 011.73 11.54l-.73 2.46-14-2-6.036-29.677-.637-3.133-.66-3.24-.515-2.534-.458-2.252-.384-1.89z" fill="#3f3d56"/><path d="M142.94 197.576l17-4c8.203 9.54 14.867 28.35 20.122 45.49.374 1.22.081 2.904 1.101 3.63 1.854 1.317 2.96 2.908 1.619 5.46-.512.974.615 2.097.913 3.12.251.86-.09 2.294.742 2.541 2.378.708 2.492 2.742 1.562 5.32l-20 10-.57-.92-2.246-3.628-9.667-15.61zM109.058 182L93.94 195.576S90.403 253.054 88.058 275c-.1.933 1.202 3.162 1.102 4.095l-.586 5.48-.44 4.124C87.975 290.182 86.058 305 86.058 305l-3 2a25.783 25.783 0 002.022 16.973L87.058 328l21.883-2.424z" fill="#3f3d56"/><path d="M100.044 204.092l-6.103-8.516-19 12c-4.193 11.599-8.791 31.836-11.331 49.436-.058.398.211 1.07-.17 1.19-1.367.434-1.78 1.12-.312 2.31a2.041 2.041 0 01-.363 2.906c-1.611.766-2.85 1.522-.257 2.262 1.823.52-.375 3.71-.51 5.457l22 5c2.011-.579 2.392-1.756 1.322-3.468 1.656-.5 2.284-1.388 1.124-2.952l.544-1.428c1.849-.286 1.823-1.052.791-2.076l.75-1.969 3.47-9.107z" fill="#3f3d56"/><circle cx="119.157" cy="151.743" r="22.358" fill="#a0616a"/><path d="M96.517 166.15s4.924 1.35 7.79 2.101c-.148-2.132-1.072-4.128-1.54-6.214s-.368-4.54 1.182-6.012 4.78-.9 5.03 1.22q1.966-4.207 3.942-8.429c3.755 7.73 11.432 1.143 19.803 3.096 4.27 1.006 9.622.573 11.878-3.19a13.938 13.938 0 01-3.155-3.783 12.735 12.735 0 004.01.508 8.406 8.406 0 00-3.716-6.785c-1.204-.787 1.776-3.588.725-4.574-2.155-2.012-3.601-.646-4.875-3.298a9.796 9.796 0 00-8.85-5.412c-3.66.086-10.216.05-11.635 3.422-4.525-2.962-10.823-2.125-15.245.982-3.676 2.572-7.859 10.348-8.782 14.737s1.111 17.805 3.438 21.63z" fill="#2f2e41"/><path d="M198.387 264.895a2.766 2.766 0 00-2.757 2.992c4.223 10.915 3.65 23.55 3.11 37.847a2.782 2.782 0 002.757 2.54h17.846a2.782 2.782 0 002.757-2.54c-1.45-13.889-.668-26.635 3.11-37.847a2.766 2.766 0 00-2.756-2.992z" fill="#c39c63"/><path d="M226.64 269.94l-1.332-6.325a2.561 2.561 0 00-2.507-2.034h-8.311a.918.918 0 00-.156-.304l-.924-1.155a.929.929 0 00-.725-.348h-5.132a.929.929 0 00-.726.348l-.923 1.155a.918.918 0 00-.156.304h-7.71a2.561 2.561 0 00-2.506 2.034l-1.331 6.324a2.561 2.561 0 002.506 3.09c8.504 4.362 17.63 4.468 27.426 0a2.561 2.561 0 002.506-3.09zm226.359 3.197c-.436-1.666-1.986-6.754-3.954-4.507-.293.334-.524-.739-.795-1.133-.47-.681-.754-3.593-1.251-4.36-1.011-1.561-2.266-1.1-3.294-2.911-2.94-5.179-5.684-11.092-6.706-16.09-3.13-15.298 1.18-36.217 1.18-36.217l-1.394-29.799-10.183-.342v-.67a5.071 5.071 0 00-5.071-5.071h-19.393a5.067 5.067 0 00-5.055 4.748l-7.986-.268-13.829 43.938s6.454 16.585 8.73 32.682a61.177 61.177 0 01.447 13.109 52.71 52.71 0 01-2.584 13.026s58.666 12.287 70.138.865c0 0 1.783-4.007 1-7z" fill="#3f3d56"/><path d="M528.118 276.34h-13.86V53.24q-1.44-1.065-2.91-2.1c-.2-.13-.39-.27-.58-.4a168.602 168.602 0 00-18.45-11.22 99.492 99.492 0 00-9.36-10.82 98.006 98.006 0 00-147.93 10.81q-6.48 3.39-12.62 7.32c-.39.25-.78.5-1.16.75-.01.01-.02.01-.03.02a5.082 5.082 0 00-2.3 4.27v224.47h-19.7c-8.7 0-16.21 7.11-16.17 15.81a15.674 15.674 0 001.13 5.79 13.982 13.982 0 001.03 2.09 15.993 15.993 0 001.77 2.46 15.7 15.7 0 0011.81 5.35h229.76a15.76 15.76 0 0015.74-15.69c.04-8.7-7.47-15.81-16.17-15.81zm-71.49 0h-80.67l-11.12-153.65h102.91z" fill="#e6e6e6"/><path fill="#ffb6b6" d="M469.635 219.27l34.475-30.715 10.17 5.039-41.347 43.367-3.298-17.691z"/><path d="M431.09 181.17l5.695-3.05s14.03-1.197 19.756 15.285l15.186 22.936 24.613-21.332 10.666 7.384-31.02 37.022-12.898 1.648-27.896-36.1z" fill="#3f3d56"/><path d="M440.372 154.807c-3.113 21.097-18.604 23.32-29.946 12.307-11.865-11.521-29.946 2.193-29.946-12.307s6.549-40.201 29.946-40.201c24.203 0 32.063 25.857 29.946 40.201z" fill="#2f2e41"/><circle cx="410.326" cy="146.939" r="20.151" fill="#ffb6b6"/><path d="M387.043 144.962h7.97l3.517-9.845.703 9.845h3.809l2.051-5.743.41 5.743c5.812 5.254 16.573 3.331 28.306 0a21.332 21.332 0 00-21.332-21.332h-4.102a21.332 21.332 0 00-21.332 21.332z" fill="#2f2e41"/><path d="M349.97 289.438a8.195 8.195 0 005.97-13.785l11.217-29.62 2.297-9.901a9.915 9.915 0 00-14.687 5.281l-11.686 35.321a8.201 8.201 0 006.889 12.704z" fill="#ffb6b6"/><path d="M485.786 159.121a2.766 2.766 0 00-2.757 2.993c3.104 13.387 4.42 26.107 3.111 37.847a2.782 2.782 0 002.757 2.539h17.845a2.782 2.782 0 002.757-2.54 119.151 119.151 0 013.11-37.846 2.766 2.766 0 00-2.756-2.993z" fill="#c39c63"/><path d="M514.039 164.166l-1.332-6.325a2.561 2.561 0 00-2.506-2.034h-8.312a.917.917 0 00-.156-.304l-.923-1.154a.929.929 0 00-.726-.349h-5.132a.929.929 0 00-.725.349l-.924 1.154a.918.918 0 00-.156.304h-7.709a2.561 2.561 0 00-2.506 2.034l-1.332 6.324a2.561 2.561 0 002.507 3.09c9.193 3.832 18.345 4.588 27.425 0a2.561 2.561 0 002.507-3.09z" fill="#3f3d56"/><path d="M404.756 38.432a1.853 1.853 0 00-1.847 2.005l2.084 25.361a1.864 1.864 0 001.847 1.702h11.96a1.864 1.864 0 001.847-1.702l2.085-25.361a1.853 1.853 0 00-1.848-2.005z" fill="#fff"/><path d="M423.688 41.812l-.892-4.238a1.716 1.716 0 00-1.68-1.363h-5.57a.615.615 0 00-.104-.204l-.619-.773a.622.622 0 00-.486-.234h-3.439a.623.623 0 00-.486.234l-.619.773a.615.615 0 00-.104.204h-5.166a1.716 1.716 0 00-1.68 1.363l-.892 4.238a1.716 1.716 0 001.68 2.07h18.378a1.716 1.716 0 001.68-2.07z" fill="#ccc"/><path d="M413.058 82a33 33 0 1133-33 33.037 33.037 0 01-33 33zm0-64a31 31 0 1031 31 31.035 31.035 0 00-31-31z" fill="#f2f2f2"/><path fill="#e6e6e6" d="M514.058 502h-197l.22-22.888.02-1.99L319.058 298h194l.25 51.746.01 1.991.74 150.263z"/><path d="M627.94 502.958l-626.75.308a1.19 1.19 0 010-2.382l626.75-.307a1.19 1.19 0 010 2.381z" fill="#cacaca"/><path d="M307.387 235.895a2.766 2.766 0 00-2.757 2.992c2.825 13.314 4.067 26.01 3.11 37.847a2.782 2.782 0 002.757 2.54h17.846a2.782 2.782 0 002.757-2.54c-1.442-11.94.082-24.688 3.11-37.847a2.766 2.766 0 00-2.756-2.992z" fill="#c39c63"/><path d="M335.64 240.94l-1.332-6.325a2.561 2.561 0 00-2.507-2.034h-8.311a.918.918 0 00-.156-.304l-.924-1.155a.929.929 0 00-.725-.348h-5.132a.929.929 0 00-.726.348l-.923 1.155a.918.918 0 00-.156.304h-7.71a2.561 2.561 0 00-2.506 2.034l-1.331 6.324a2.561 2.561 0 002.506 3.09 46.45 46.45 0 0027.426 0 2.561 2.561 0 002.506-3.09z" fill="#3f3d56"/><path fill="#f2f2f2" d="M320.058 381h91.701v2h-91.701zm101-74h91.701v2h-91.701zm-51 138h91.701v2h-91.701zm143.26-93h-43.26v-2h43.25l.01 2zm-184-59h-43.26v-2h43.25l.01 2zm34-197h-43.26v-2h43.25l.01 2zm145-41h-43.26v-2h43.25l.01 2zm-44 41h-43.26v-2h43.25l.01 2zm-119.56 382v2h-27.48l.02-2h27.46z"/><circle cx="510.647" cy="192.907" r="8.204" fill="#ffb6b6"/><path d="M392.53 181.991l-3.433-5.474s-11.166-2.76-15.763 4.639-29.335 86.98-29.335 86.98l14 5 27-61.755z" fill="#3f3d56"/></svg>